<svg width="33" height="33" viewBox="0 0 33 33" fill="none" xmlns="http://www.w3.org/2000/svg">
<g clip-path="url(#clip0_1_1563)">
<path fill-rule="evenodd" clip-rule="evenodd" d="M8.3335 16.089L14.2735 12.789L8.3335 9.489V16.089ZM11.1935 16.789H21.4735L16.3335 13.933L11.1935 16.789ZM24.3335 16.089V9.489L18.3935 12.789L24.3335 16.089ZM21.4735 8.789H11.1935L16.3335 11.645L21.4735 8.789ZM26.3335 16.789C26.3335 17.3194 26.1228 17.8281 25.7477 18.2032C25.3726 18.5783 24.8639 18.789 24.3335 18.789H8.3335C7.80306 18.789 7.29436 18.5783 6.91928 18.2032C6.54421 17.8281 6.3335 17.3194 6.3335 16.789V8.789C6.3335 8.25857 6.54421 7.74986 6.91928 7.37479C7.29436 6.99972 7.80306 6.789 8.3335 6.789H24.3335C24.8639 6.789 25.3726 6.99972 25.7477 7.37479C26.1228 7.74986 26.3335 8.25857 26.3335 8.789V16.789Z" fill="#929CA5"/>
<path d="M8.3335 26.789L24.3335 26.789C25.4381 26.789 26.3335 25.8936 26.3335 24.789V22.789C26.3335 21.6844 25.4381 20.789 24.3335 20.789H8.3335C7.22893 20.789 6.3335 21.6844 6.3335 22.789V24.789C6.3335 25.8936 7.22893 26.789 8.3335 26.789Z" fill="#929CA5"/>
<path d="M28.3335 1.789H4.3335C2.67664 1.789 1.3335 3.13215 1.3335 4.789V28.789C1.3335 30.4459 2.67664 31.789 4.3335 31.789H28.3335C29.9904 31.789 31.3335 30.4459 31.3335 28.789V4.789C31.3335 3.13215 29.9904 1.789 28.3335 1.789Z" stroke="#929CA5" stroke-width="2"/>
</g>
<defs>
<clipPath id="clip0_1_1563">
<rect width="32" height="32" fill="white" transform="translate(0.333496 0.789001)"/>
</clipPath>
</defs>
</svg>
