<svg width="33" height="33" viewBox="0 0 33 33" fill="none" xmlns="http://www.w3.org/2000/svg">
<g clip-path="url(#clip0_1_1553)">
<path d="M24.3335 6.79614H8.3335C7.22893 6.79614 6.3335 7.69157 6.3335 8.79614V16.7961C6.3335 17.9007 7.22893 18.7961 8.3335 18.7961H24.3335C25.4381 18.7961 26.3335 17.9007 26.3335 16.7961V8.79614C26.3335 7.69157 25.4381 6.79614 24.3335 6.79614Z" fill="#929CA5"/>
<path d="M25.3335 24.7961H7.3335C6.78121 24.7961 6.3335 25.2439 6.3335 25.7961C6.3335 26.3484 6.78121 26.7961 7.3335 26.7961H25.3335C25.8858 26.7961 26.3335 26.3484 26.3335 25.7961C26.3335 25.2439 25.8858 24.7961 25.3335 24.7961Z" fill="#929CA5"/>
<path d="M17.3335 20.7961H7.3335C6.78121 20.7961 6.3335 21.2439 6.3335 21.7961C6.3335 22.3484 6.78121 22.7961 7.3335 22.7961H17.3335C17.8858 22.7961 18.3335 22.3484 18.3335 21.7961C18.3335 21.2439 17.8858 20.7961 17.3335 20.7961Z" fill="#929CA5"/>
<path d="M28.3335 1.79614H4.3335C2.67664 1.79614 1.3335 3.13929 1.3335 4.79614V28.7961C1.3335 30.453 2.67664 31.7961 4.3335 31.7961H28.3335C29.9904 31.7961 31.3335 30.453 31.3335 28.7961V4.79614C31.3335 3.13929 29.9904 1.79614 28.3335 1.79614Z" stroke="#929CA5" stroke-width="2"/>
</g>
<defs>
<clipPath id="clip0_1_1553">
<rect width="32" height="32" fill="white" transform="translate(0.333496 0.796143)"/>
</clipPath>
</defs>
</svg>
