<svg width="25" height="25" viewBox="0 0 25 25" fill="none" xmlns="http://www.w3.org/2000/svg">
<path fill-rule="evenodd" clip-rule="evenodd" d="M15.8857 3.26604C16.2763 3.65656 16.2763 4.28973 15.8857 4.68025L9.5155 11.0505C9.32029 11.249 9.27247 11.4527 9.30653 11.6814C9.34624 11.948 9.5088 12.2688 9.7869 12.5469C10.065 12.825 10.3858 12.9875 10.6524 13.0272C10.8835 13.0617 11.0891 13.0125 11.2895 12.812L15.8857 8.21579C16.0787 8.0228 16.3309 7.92518 16.5839 7.92294C16.8428 7.9206 17.1025 8.01822 17.3 8.21579C17.6906 8.60631 17.6906 9.23948 17.3 9.63L12.7038 14.2262C12.5034 14.4267 12.4542 14.6322 12.4886 14.8634C12.5284 15.13 12.6909 15.4507 12.969 15.7288C13.2471 16.0069 13.5679 16.1695 13.8345 16.2092C14.0623 16.2431 14.2652 16.1958 14.4629 16.0026L20.8355 9.63C21.226 9.23947 21.8592 9.23947 22.2497 9.63C22.6402 10.0205 22.6402 10.6537 22.2497 11.0443L15.8942 17.3997L15.8858 17.4082L15.8711 17.4228L14.4715 18.8224C14.3562 18.9378 14.2144 19.0231 14.0585 19.0711L4.86613 21.8995C4.5121 22.0085 4.12686 21.9128 3.86494 21.6509C3.60302 21.3889 3.50733 21.0037 3.61627 20.6497L6.44469 11.4573C6.49266 11.3014 6.57803 11.1596 6.69337 11.0443L8.09695 9.64062C8.10046 9.63708 8.10399 9.63354 8.10752 9.63C8.10955 9.62797 8.11159 9.62595 8.11363 9.62395L14.4715 3.26604C14.862 2.87551 15.4952 2.87551 15.8857 3.26604ZM7.92911 13.4337L6.08332 19.4325L12.0822 17.5866C11.8914 17.4526 11.7146 17.3029 11.5548 17.1431C11.0374 16.6257 10.6255 15.9299 10.5105 15.158C10.5038 15.1129 10.4981 15.0677 10.4935 15.0224C10.4481 15.0178 10.4029 15.0121 10.3577 15.0054C9.5858 14.8904 8.89008 14.4785 8.37269 13.9611C8.21289 13.8013 8.06315 13.6245 7.92911 13.4337Z" fill="#666666"/>
</svg>
