<svg width="25" height="25" viewBox="0 0 25 25" fill="none" xmlns="http://www.w3.org/2000/svg">
<path d="M21.348 17.4562C21.07 18.9482 19.604 19.7992 18.086 19.7992H6.914C5.396 19.7992 3.93 18.9492 3.652 17.4562C3.41016 16.1571 3.45737 14.8206 3.79027 13.5418C4.12316 12.263 4.73358 11.0732 5.57816 10.0569C6.42274 9.04055 7.48075 8.22269 8.67705 7.66138C9.87334 7.10007 11.1786 6.80908 12.5 6.80908C13.8214 6.80908 15.1267 7.10007 16.323 7.66138C17.5192 8.22269 18.5773 9.04055 19.4218 10.0569C20.2664 11.0732 20.8768 12.263 21.2097 13.5418C21.5426 14.8206 21.5898 16.1571 21.348 17.4562ZM7.118 12.7982C6.97909 12.7986 6.84437 12.8458 6.73558 12.9322C6.6268 13.0186 6.55028 13.1391 6.51839 13.2743C6.4865 13.4095 6.50108 13.5515 6.55979 13.6774C6.61851 13.8033 6.71792 13.9057 6.842 13.9682C8.447 14.7712 9.981 15.6522 11.5 16.5292C11.7676 16.6834 12.0672 16.7736 12.3754 16.7927C12.6837 16.8118 12.9922 16.7592 13.2767 16.6391C13.5612 16.5191 13.8141 16.3347 14.0155 16.1005C14.2168 15.8664 14.3612 15.5887 14.4373 15.2894C14.5134 14.9901 14.5192 14.6772 14.4541 14.3753C14.3891 14.0734 14.255 13.7907 14.0624 13.5493C13.8698 13.3078 13.6239 13.1143 13.344 12.9838C13.0641 12.8533 12.7577 12.7894 12.449 12.7972L7.118 12.7982Z" fill="#3B9B5B"/>
</svg>
