<svg width="25" height="25" viewBox="0 0 25 25" fill="none" xmlns="http://www.w3.org/2000/svg">
<path d="M12.5 20.7993C14.6217 20.7993 16.6566 19.9565 18.1569 18.4562C19.6571 16.9559 20.5 14.921 20.5 12.7993C20.5 10.6776 19.6571 8.64275 18.1569 7.14246C16.6566 5.64217 14.6217 4.79932 12.5 4.79932C10.3783 4.79932 8.34344 5.64217 6.84315 7.14246C5.34285 8.64275 4.5 10.6776 4.5 12.7993C4.5 14.921 5.34285 16.9559 6.84315 18.4562C8.34344 19.9565 10.3783 20.7993 12.5 20.7993ZM14.79 16.5093L11.5 13.2093V8.79932H13.5V12.3893L16.21 15.0993L14.79 16.5093Z" fill="#6C8694"/>
</svg>
