<svg width="13" height="18" viewBox="0 0 13 18" fill="none" xmlns="http://www.w3.org/2000/svg">
<path d="M7.1195 0.648926C5.2955 0.648926 4.1195 1.44093 3.4955 2.37693V0.936926H0.135498V17.7084H3.6395V12.1449C4.2635 13.0089 5.4395 13.6329 7.0235 13.6329C10.0715 13.6329 12.4955 11.2329 12.4955 7.15291C12.4955 3.00093 10.0715 0.648926 7.1195 0.648926ZM6.2795 10.6089C4.6475 10.6089 3.5675 9.28892 3.5675 7.20092V7.10491C3.5675 5.01693 4.6475 3.67293 6.2795 3.67293C7.9115 3.67293 8.9675 5.04093 8.9675 7.15291C8.9675 9.26491 7.9115 10.6089 6.2795 10.6089Z" fill="white"/>
</svg>
