<svg width="12" height="14" viewBox="0 0 12 14" fill="none" xmlns="http://www.w3.org/2000/svg">
<path d="M6.33576 0.648926C3.09576 0.648926 1.24776 2.48153 0.911762 4.61753H4.17576C4.36776 3.96953 4.99176 3.36093 6.19176 3.36093C7.36776 3.36093 8.23176 3.96093 8.23176 5.11293V5.68893H5.51976C2.35176 5.68893 0.431763 7.15292 0.431763 9.69692C0.431763 12.1929 2.35176 13.6329 4.75176 13.6329C6.35976 13.6329 7.65576 13.0089 8.42376 12.0009V13.3449H11.6638V5.23293C11.6638 2.20893 9.52776 0.648926 6.33576 0.648926ZM5.71176 10.9209C4.63176 10.9209 3.93576 10.3929 3.93576 9.52892C3.93576 8.64091 4.70376 8.11291 5.78376 8.11291H8.23176V8.66492C8.23176 10.1049 7.05576 10.9209 5.71176 10.9209Z" fill="white"/>
</svg>
