<svg width="13" height="19" viewBox="0 0 13 19" fill="none" xmlns="http://www.w3.org/2000/svg">
<path d="M7.37332 6.15285C5.64532 6.15285 4.22932 6.77685 3.31732 8.04885C3.55732 5.72085 4.49332 4.56885 6.84532 4.20885L11.5909 3.51285V0.464844L6.50932 1.30485C1.61332 2.12085 0.101318 5.38485 0.101318 10.8328C0.101318 15.7288 2.47732 18.6328 6.67732 18.6328C10.4453 18.6328 12.7733 15.7528 12.7733 12.2968C12.7733 8.57685 10.6133 6.15285 7.37332 6.15285ZM6.50932 15.7048C4.68532 15.7048 3.67732 14.2408 3.67732 12.2728C3.67732 10.3768 4.73332 9.00885 6.53332 9.00885C8.28532 9.00885 9.26932 10.4248 9.26932 12.2968C9.26932 14.1688 8.30932 15.7048 6.50932 15.7048Z" fill="white"/>
</svg>
